<?xml version="1.0" encoding="utf-8" standalone="no"?>
<!DOCTYPE svg PUBLIC "-//W3C//DTD SVG 1.1//EN"
  "http://www.w3.org/Graphics/SVG/1.1/DTD/svg11.dtd">
<svg height="288pt" version="1.1" viewBox="0 0 432 288" width="432pt" xmlns="http://www.w3.org/2000/svg" xmlns:xlink="http://www.w3.org/1999/xlink">
 <metadata>
  <rdf:RDF xmlns:cc="http://creativecommons.org/ns#" xmlns:dc="http://purl.org/dc/elements/1.1/" xmlns:rdf="http://www.w3.org/1999/02/22-rdf-syntax-ns#">
   <cc:Work>
    <dc:type rdf:resource="http://purl.org/dc/dcmitype/StillImage"/>
    <dc:date>2021-09-08T09:43:55.234685</dc:date>
    <dc:format>image/svg+xml</dc:format>
    <dc:creator>
     <cc:Agent>
      <dc:title>Matplotlib v3.4.2, https://matplotlib.org/</dc:title>
     </cc:Agent>
    </dc:creator>
   </cc:Work>
  </rdf:RDF>
 </metadata>
 <defs>
  <style type="text/css">*{stroke-linecap:butt;stroke-linejoin:round;}</style>
 </defs>
 <g id="figure_1">
  <g id="patch_1">
   <path d="M 0 288 
L 432 288 
L 432 0 
L 0 0 
z
" style="fill:none;"/>
  </g>
  <g id="axes_1">
   <g id="patch_2">
    <path d="M 54 133.396364 
L 388.8 133.396364 
L 388.8 34.56 
L 54 34.56 
z
" style="fill:#ffffff;"/>
   </g>
   <g id="matplotlib.axis_1">
    <g id="xtick_1">
     <g id="line2d_1">
      <path clip-path="url(#pe6df4b6e75)" d="M 54 133.396364 
L 54 34.56 
" style="fill:none;stroke:#b0b0b0;stroke-linecap:square;stroke-width:0.8;"/>
     </g>
     <g id="line2d_2">
      <defs>
       <path d="M 0 0 
L 0 3.5 
" id="ma491307876" style="stroke:#000000;stroke-width:0.8;"/>
      </defs>
      <g>
       <use style="stroke:#000000;stroke-width:0.8;" x="54" xlink:href="#ma491307876" y="133.396364"/>
      </g>
     </g>
    </g>
    <g id="xtick_2">
     <g id="line2d_3">
      <path clip-path="url(#pe6df4b6e75)" d="M 106.3125 133.396364 
L 106.3125 34.56 
" style="fill:none;stroke:#b0b0b0;stroke-linecap:square;stroke-width:0.8;"/>
     </g>
     <g id="line2d_4">
      <g>
       <use style="stroke:#000000;stroke-width:0.8;" x="106.3125" xlink:href="#ma491307876" y="133.396364"/>
      </g>
     </g>
    </g>
    <g id="xtick_3">
     <g id="line2d_5">
      <path clip-path="url(#pe6df4b6e75)" d="M 158.625 133.396364 
L 158.625 34.56 
" style="fill:none;stroke:#b0b0b0;stroke-linecap:square;stroke-width:0.8;"/>
     </g>
     <g id="line2d_6">
      <g>
       <use style="stroke:#000000;stroke-width:0.8;" x="158.625" xlink:href="#ma491307876" y="133.396364"/>
      </g>
     </g>
    </g>
    <g id="xtick_4">
     <g id="line2d_7">
      <path clip-path="url(#pe6df4b6e75)" d="M 210.9375 133.396364 
L 210.9375 34.56 
" style="fill:none;stroke:#b0b0b0;stroke-linecap:square;stroke-width:0.8;"/>
     </g>
     <g id="line2d_8">
      <g>
       <use style="stroke:#000000;stroke-width:0.8;" x="210.9375" xlink:href="#ma491307876" y="133.396364"/>
      </g>
     </g>
    </g>
    <g id="xtick_5">
     <g id="line2d_9">
      <path clip-path="url(#pe6df4b6e75)" d="M 263.25 133.396364 
L 263.25 34.56 
" style="fill:none;stroke:#b0b0b0;stroke-linecap:square;stroke-width:0.8;"/>
     </g>
     <g id="line2d_10">
      <g>
       <use style="stroke:#000000;stroke-width:0.8;" x="263.25" xlink:href="#ma491307876" y="133.396364"/>
      </g>
     </g>
    </g>
    <g id="xtick_6">
     <g id="line2d_11">
      <path clip-path="url(#pe6df4b6e75)" d="M 315.5625 133.396364 
L 315.5625 34.56 
" style="fill:none;stroke:#b0b0b0;stroke-linecap:square;stroke-width:0.8;"/>
     </g>
     <g id="line2d_12">
      <g>
       <use style="stroke:#000000;stroke-width:0.8;" x="315.5625" xlink:href="#ma491307876" y="133.396364"/>
      </g>
     </g>
    </g>
    <g id="xtick_7">
     <g id="line2d_13">
      <path clip-path="url(#pe6df4b6e75)" d="M 367.875 133.396364 
L 367.875 34.56 
" style="fill:none;stroke:#b0b0b0;stroke-linecap:square;stroke-width:0.8;"/>
     </g>
     <g id="line2d_14">
      <g>
       <use style="stroke:#000000;stroke-width:0.8;" x="367.875" xlink:href="#ma491307876" y="133.396364"/>
      </g>
     </g>
    </g>
   </g>
   <g id="matplotlib.axis_2">
    <g id="ytick_1">
     <g id="line2d_15">
      <path clip-path="url(#pe6df4b6e75)" d="M 54 133.396364 
L 388.8 133.396364 
" style="fill:none;stroke:#b0b0b0;stroke-linecap:square;stroke-width:0.8;"/>
     </g>
     <g id="line2d_16">
      <defs>
       <path d="M 0 0 
L -3.5 0 
" id="mb9f5dc6938" style="stroke:#000000;stroke-width:0.8;"/>
      </defs>
      <g>
       <use style="stroke:#000000;stroke-width:0.8;" x="54" xlink:href="#mb9f5dc6938" y="133.396364"/>
      </g>
     </g>
     <g id="text_1">
      <!-- 0 -->
      <g transform="translate(40.6375 137.195582)scale(0.1 -0.1)">
       <defs>
        <path d="M 2034 4250 
Q 1547 4250 1301 3770 
Q 1056 3291 1056 2328 
Q 1056 1369 1301 889 
Q 1547 409 2034 409 
Q 2525 409 2770 889 
Q 3016 1369 3016 2328 
Q 3016 3291 2770 3770 
Q 2525 4250 2034 4250 
z
M 2034 4750 
Q 2819 4750 3233 4129 
Q 3647 3509 3647 2328 
Q 3647 1150 3233 529 
Q 2819 -91 2034 -91 
Q 1250 -91 836 529 
Q 422 1150 422 2328 
Q 422 3509 836 4129 
Q 1250 4750 2034 4750 
z
" id="DejaVuSans-30" transform="scale(0.015625)"/>
       </defs>
       <use xlink:href="#DejaVuSans-30"/>
      </g>
     </g>
    </g>
    <g id="ytick_2">
     <g id="line2d_17">
      <path clip-path="url(#pe6df4b6e75)" d="M 54 97.455868 
L 388.8 97.455868 
" style="fill:none;stroke:#b0b0b0;stroke-linecap:square;stroke-width:0.8;"/>
     </g>
     <g id="line2d_18">
      <g>
       <use style="stroke:#000000;stroke-width:0.8;" x="54" xlink:href="#mb9f5dc6938" y="97.455868"/>
      </g>
     </g>
     <g id="text_2">
      <!-- 20 -->
      <g transform="translate(34.275 101.255087)scale(0.1 -0.1)">
       <defs>
        <path d="M 1228 531 
L 3431 531 
L 3431 0 
L 469 0 
L 469 531 
Q 828 903 1448 1529 
Q 2069 2156 2228 2338 
Q 2531 2678 2651 2914 
Q 2772 3150 2772 3378 
Q 2772 3750 2511 3984 
Q 2250 4219 1831 4219 
Q 1534 4219 1204 4116 
Q 875 4013 500 3803 
L 500 4441 
Q 881 4594 1212 4672 
Q 1544 4750 1819 4750 
Q 2544 4750 2975 4387 
Q 3406 4025 3406 3419 
Q 3406 3131 3298 2873 
Q 3191 2616 2906 2266 
Q 2828 2175 2409 1742 
Q 1991 1309 1228 531 
z
" id="DejaVuSans-32" transform="scale(0.015625)"/>
       </defs>
       <use xlink:href="#DejaVuSans-32"/>
       <use x="63.623047" xlink:href="#DejaVuSans-30"/>
      </g>
     </g>
    </g>
    <g id="ytick_3">
     <g id="line2d_19">
      <path clip-path="url(#pe6df4b6e75)" d="M 54 61.515372 
L 388.8 61.515372 
" style="fill:none;stroke:#b0b0b0;stroke-linecap:square;stroke-width:0.8;"/>
     </g>
     <g id="line2d_20">
      <g>
       <use style="stroke:#000000;stroke-width:0.8;" x="54" xlink:href="#mb9f5dc6938" y="61.515372"/>
      </g>
     </g>
     <g id="text_3">
      <!-- 40 -->
      <g transform="translate(34.275 65.314591)scale(0.1 -0.1)">
       <defs>
        <path d="M 2419 4116 
L 825 1625 
L 2419 1625 
L 2419 4116 
z
M 2253 4666 
L 3047 4666 
L 3047 1625 
L 3713 1625 
L 3713 1100 
L 3047 1100 
L 3047 0 
L 2419 0 
L 2419 1100 
L 313 1100 
L 313 1709 
L 2253 4666 
z
" id="DejaVuSans-34" transform="scale(0.015625)"/>
       </defs>
       <use xlink:href="#DejaVuSans-34"/>
       <use x="63.623047" xlink:href="#DejaVuSans-30"/>
      </g>
     </g>
    </g>
    <g id="text_4">
     <!-- 2020 -->
     <g transform="translate(28.195312 96.703182)rotate(-90)scale(0.1 -0.1)">
      <use xlink:href="#DejaVuSans-32"/>
      <use x="63.623047" xlink:href="#DejaVuSans-30"/>
      <use x="127.246094" xlink:href="#DejaVuSans-32"/>
      <use x="190.869141" xlink:href="#DejaVuSans-30"/>
     </g>
    </g>
   </g>
   <g id="line2d_21">
    <path clip-path="url(#pe6df4b6e75)" d="M 64.4625 97.455868 
L 74.925 93.861818 
L 85.3875 70.500496 
L 95.85 65.109421 
L 106.3125 79.48562 
L 116.775 79.48562 
L 127.2375 81.282645 
L 137.7 81.282645 
L 148.1625 74.094545 
L 158.625 43.545124 
L 169.0875 77.688595 
L 179.55 77.688595 
L 190.0125 61.515372 
L 200.475 74.094545 
L 210.9375 74.094545 
L 221.4 86.673719 
L 231.8625 86.673719 
L 242.325 77.688595 
L 252.7875 77.688595 
L 263.25 52.530248 
L 273.7125 74.094545 
L 284.175 92.064793 
L 294.6375 92.064793 
L 305.1 74.094545 
L 315.5625 66.906446 
L 326.025 70.500496 
L 336.4875 63.312397 
L 346.95 54.327273 
L 357.4125 54.327273 
L 367.875 54.327273 
L 378.3375 57.921322 
" style="fill:none;stroke:#ba55d3;stroke-dasharray:1.5,2.475;stroke-dashoffset:0;stroke-width:1.5;"/>
    <defs>
     <path d="M 0 3 
C 0.795609 3 1.55874 2.683901 2.12132 2.12132 
C 2.683901 1.55874 3 0.795609 3 0 
C 3 -0.795609 2.683901 -1.55874 2.12132 -2.12132 
C 1.55874 -2.683901 0.795609 -3 0 -3 
C -0.795609 -3 -1.55874 -2.683901 -2.12132 -2.12132 
C -2.683901 -1.55874 -3 -0.795609 -3 0 
C -3 0.795609 -2.683901 1.55874 -2.12132 2.12132 
C -1.55874 2.683901 -0.795609 3 0 3 
z
" id="m42001537ed" style="stroke:#ba55d3;"/>
    </defs>
    <g clip-path="url(#pe6df4b6e75)">
     <use style="fill:#ba55d3;stroke:#ba55d3;" x="64.4625" xlink:href="#m42001537ed" y="97.455868"/>
     <use style="fill:#ba55d3;stroke:#ba55d3;" x="74.925" xlink:href="#m42001537ed" y="93.861818"/>
     <use style="fill:#ba55d3;stroke:#ba55d3;" x="85.3875" xlink:href="#m42001537ed" y="70.500496"/>
     <use style="fill:#ba55d3;stroke:#ba55d3;" x="95.85" xlink:href="#m42001537ed" y="65.109421"/>
     <use style="fill:#ba55d3;stroke:#ba55d3;" x="106.3125" xlink:href="#m42001537ed" y="79.48562"/>
     <use style="fill:#ba55d3;stroke:#ba55d3;" x="116.775" xlink:href="#m42001537ed" y="79.48562"/>
     <use style="fill:#ba55d3;stroke:#ba55d3;" x="127.2375" xlink:href="#m42001537ed" y="81.282645"/>
     <use style="fill:#ba55d3;stroke:#ba55d3;" x="137.7" xlink:href="#m42001537ed" y="81.282645"/>
     <use style="fill:#ba55d3;stroke:#ba55d3;" x="148.1625" xlink:href="#m42001537ed" y="74.094545"/>
     <use style="fill:#ba55d3;stroke:#ba55d3;" x="158.625" xlink:href="#m42001537ed" y="43.545124"/>
     <use style="fill:#ba55d3;stroke:#ba55d3;" x="169.0875" xlink:href="#m42001537ed" y="77.688595"/>
     <use style="fill:#ba55d3;stroke:#ba55d3;" x="179.55" xlink:href="#m42001537ed" y="77.688595"/>
     <use style="fill:#ba55d3;stroke:#ba55d3;" x="190.0125" xlink:href="#m42001537ed" y="61.515372"/>
     <use style="fill:#ba55d3;stroke:#ba55d3;" x="200.475" xlink:href="#m42001537ed" y="74.094545"/>
     <use style="fill:#ba55d3;stroke:#ba55d3;" x="210.9375" xlink:href="#m42001537ed" y="74.094545"/>
     <use style="fill:#ba55d3;stroke:#ba55d3;" x="221.4" xlink:href="#m42001537ed" y="86.673719"/>
     <use style="fill:#ba55d3;stroke:#ba55d3;" x="231.8625" xlink:href="#m42001537ed" y="86.673719"/>
     <use style="fill:#ba55d3;stroke:#ba55d3;" x="242.325" xlink:href="#m42001537ed" y="77.688595"/>
     <use style="fill:#ba55d3;stroke:#ba55d3;" x="252.7875" xlink:href="#m42001537ed" y="77.688595"/>
     <use style="fill:#ba55d3;stroke:#ba55d3;" x="263.25" xlink:href="#m42001537ed" y="52.530248"/>
     <use style="fill:#ba55d3;stroke:#ba55d3;" x="273.7125" xlink:href="#m42001537ed" y="74.094545"/>
     <use style="fill:#ba55d3;stroke:#ba55d3;" x="284.175" xlink:href="#m42001537ed" y="92.064793"/>
     <use style="fill:#ba55d3;stroke:#ba55d3;" x="294.6375" xlink:href="#m42001537ed" y="92.064793"/>
     <use style="fill:#ba55d3;stroke:#ba55d3;" x="305.1" xlink:href="#m42001537ed" y="74.094545"/>
     <use style="fill:#ba55d3;stroke:#ba55d3;" x="315.5625" xlink:href="#m42001537ed" y="66.906446"/>
     <use style="fill:#ba55d3;stroke:#ba55d3;" x="326.025" xlink:href="#m42001537ed" y="70.500496"/>
     <use style="fill:#ba55d3;stroke:#ba55d3;" x="336.4875" xlink:href="#m42001537ed" y="63.312397"/>
     <use style="fill:#ba55d3;stroke:#ba55d3;" x="346.95" xlink:href="#m42001537ed" y="54.327273"/>
     <use style="fill:#ba55d3;stroke:#ba55d3;" x="357.4125" xlink:href="#m42001537ed" y="54.327273"/>
     <use style="fill:#ba55d3;stroke:#ba55d3;" x="367.875" xlink:href="#m42001537ed" y="54.327273"/>
     <use style="fill:#ba55d3;stroke:#ba55d3;" x="378.3375" xlink:href="#m42001537ed" y="57.921322"/>
    </g>
   </g>
   <g id="patch_3">
    <path d="M 54 133.396364 
L 54 34.56 
" style="fill:none;stroke:#000000;stroke-linecap:square;stroke-linejoin:miter;stroke-width:0.8;"/>
   </g>
   <g id="patch_4">
    <path d="M 388.8 133.396364 
L 388.8 34.56 
" style="fill:none;stroke:#000000;stroke-linecap:square;stroke-linejoin:miter;stroke-width:0.8;"/>
   </g>
   <g id="patch_5">
    <path d="M 54 133.396364 
L 388.8 133.396364 
" style="fill:none;stroke:#000000;stroke-linecap:square;stroke-linejoin:miter;stroke-width:0.8;"/>
   </g>
   <g id="patch_6">
    <path d="M 54 34.56 
L 388.8 34.56 
" style="fill:none;stroke:#000000;stroke-linecap:square;stroke-linejoin:miter;stroke-width:0.8;"/>
   </g>
  </g>
  <g id="axes_2">
   <g id="patch_7">
    <path d="M 54 252 
L 388.8 252 
L 388.8 153.163636 
L 54 153.163636 
z
" style="fill:#ffffff;"/>
   </g>
   <g id="matplotlib.axis_3">
    <g id="xtick_8">
     <g id="line2d_22">
      <path clip-path="url(#p0ee73e0059)" d="M 54 252 
L 54 153.163636 
" style="fill:none;stroke:#b0b0b0;stroke-linecap:square;stroke-width:0.8;"/>
     </g>
     <g id="line2d_23">
      <g>
       <use style="stroke:#000000;stroke-width:0.8;" x="54" xlink:href="#ma491307876" y="252"/>
      </g>
     </g>
     <g id="text_5">
      <!-- 0 -->
      <g transform="translate(50.81875 266.598437)scale(0.1 -0.1)">
       <use xlink:href="#DejaVuSans-30"/>
      </g>
     </g>
    </g>
    <g id="xtick_9">
     <g id="line2d_24">
      <path clip-path="url(#p0ee73e0059)" d="M 106.3125 252 
L 106.3125 153.163636 
" style="fill:none;stroke:#b0b0b0;stroke-linecap:square;stroke-width:0.8;"/>
     </g>
     <g id="line2d_25">
      <g>
       <use style="stroke:#000000;stroke-width:0.8;" x="106.3125" xlink:href="#ma491307876" y="252"/>
      </g>
     </g>
     <g id="text_6">
      <!-- 5 -->
      <g transform="translate(103.13125 266.598437)scale(0.1 -0.1)">
       <defs>
        <path d="M 691 4666 
L 3169 4666 
L 3169 4134 
L 1269 4134 
L 1269 2991 
Q 1406 3038 1543 3061 
Q 1681 3084 1819 3084 
Q 2600 3084 3056 2656 
Q 3513 2228 3513 1497 
Q 3513 744 3044 326 
Q 2575 -91 1722 -91 
Q 1428 -91 1123 -41 
Q 819 9 494 109 
L 494 744 
Q 775 591 1075 516 
Q 1375 441 1709 441 
Q 2250 441 2565 725 
Q 2881 1009 2881 1497 
Q 2881 1984 2565 2268 
Q 2250 2553 1709 2553 
Q 1456 2553 1204 2497 
Q 953 2441 691 2322 
L 691 4666 
z
" id="DejaVuSans-35" transform="scale(0.015625)"/>
       </defs>
       <use xlink:href="#DejaVuSans-35"/>
      </g>
     </g>
    </g>
    <g id="xtick_10">
     <g id="line2d_26">
      <path clip-path="url(#p0ee73e0059)" d="M 158.625 252 
L 158.625 153.163636 
" style="fill:none;stroke:#b0b0b0;stroke-linecap:square;stroke-width:0.8;"/>
     </g>
     <g id="line2d_27">
      <g>
       <use style="stroke:#000000;stroke-width:0.8;" x="158.625" xlink:href="#ma491307876" y="252"/>
      </g>
     </g>
     <g id="text_7">
      <!-- 10 -->
      <g transform="translate(152.2625 266.598437)scale(0.1 -0.1)">
       <defs>
        <path d="M 794 531 
L 1825 531 
L 1825 4091 
L 703 3866 
L 703 4441 
L 1819 4666 
L 2450 4666 
L 2450 531 
L 3481 531 
L 3481 0 
L 794 0 
L 794 531 
z
" id="DejaVuSans-31" transform="scale(0.015625)"/>
       </defs>
       <use xlink:href="#DejaVuSans-31"/>
       <use x="63.623047" xlink:href="#DejaVuSans-30"/>
      </g>
     </g>
    </g>
    <g id="xtick_11">
     <g id="line2d_28">
      <path clip-path="url(#p0ee73e0059)" d="M 210.9375 252 
L 210.9375 153.163636 
" style="fill:none;stroke:#b0b0b0;stroke-linecap:square;stroke-width:0.8;"/>
     </g>
     <g id="line2d_29">
      <g>
       <use style="stroke:#000000;stroke-width:0.8;" x="210.9375" xlink:href="#ma491307876" y="252"/>
      </g>
     </g>
     <g id="text_8">
      <!-- 15 -->
      <g transform="translate(204.575 266.598437)scale(0.1 -0.1)">
       <use xlink:href="#DejaVuSans-31"/>
       <use x="63.623047" xlink:href="#DejaVuSans-35"/>
      </g>
     </g>
    </g>
    <g id="xtick_12">
     <g id="line2d_30">
      <path clip-path="url(#p0ee73e0059)" d="M 263.25 252 
L 263.25 153.163636 
" style="fill:none;stroke:#b0b0b0;stroke-linecap:square;stroke-width:0.8;"/>
     </g>
     <g id="line2d_31">
      <g>
       <use style="stroke:#000000;stroke-width:0.8;" x="263.25" xlink:href="#ma491307876" y="252"/>
      </g>
     </g>
     <g id="text_9">
      <!-- 20 -->
      <g transform="translate(256.8875 266.598437)scale(0.1 -0.1)">
       <use xlink:href="#DejaVuSans-32"/>
       <use x="63.623047" xlink:href="#DejaVuSans-30"/>
      </g>
     </g>
    </g>
    <g id="xtick_13">
     <g id="line2d_32">
      <path clip-path="url(#p0ee73e0059)" d="M 315.5625 252 
L 315.5625 153.163636 
" style="fill:none;stroke:#b0b0b0;stroke-linecap:square;stroke-width:0.8;"/>
     </g>
     <g id="line2d_33">
      <g>
       <use style="stroke:#000000;stroke-width:0.8;" x="315.5625" xlink:href="#ma491307876" y="252"/>
      </g>
     </g>
     <g id="text_10">
      <!-- 25 -->
      <g transform="translate(309.2 266.598437)scale(0.1 -0.1)">
       <use xlink:href="#DejaVuSans-32"/>
       <use x="63.623047" xlink:href="#DejaVuSans-35"/>
      </g>
     </g>
    </g>
    <g id="xtick_14">
     <g id="line2d_34">
      <path clip-path="url(#p0ee73e0059)" d="M 367.875 252 
L 367.875 153.163636 
" style="fill:none;stroke:#b0b0b0;stroke-linecap:square;stroke-width:0.8;"/>
     </g>
     <g id="line2d_35">
      <g>
       <use style="stroke:#000000;stroke-width:0.8;" x="367.875" xlink:href="#ma491307876" y="252"/>
      </g>
     </g>
     <g id="text_11">
      <!-- 30 -->
      <g transform="translate(361.5125 266.598437)scale(0.1 -0.1)">
       <defs>
        <path d="M 2597 2516 
Q 3050 2419 3304 2112 
Q 3559 1806 3559 1356 
Q 3559 666 3084 287 
Q 2609 -91 1734 -91 
Q 1441 -91 1130 -33 
Q 819 25 488 141 
L 488 750 
Q 750 597 1062 519 
Q 1375 441 1716 441 
Q 2309 441 2620 675 
Q 2931 909 2931 1356 
Q 2931 1769 2642 2001 
Q 2353 2234 1838 2234 
L 1294 2234 
L 1294 2753 
L 1863 2753 
Q 2328 2753 2575 2939 
Q 2822 3125 2822 3475 
Q 2822 3834 2567 4026 
Q 2313 4219 1838 4219 
Q 1578 4219 1281 4162 
Q 984 4106 628 3988 
L 628 4550 
Q 988 4650 1302 4700 
Q 1616 4750 1894 4750 
Q 2613 4750 3031 4423 
Q 3450 4097 3450 3541 
Q 3450 3153 3228 2886 
Q 3006 2619 2597 2516 
z
" id="DejaVuSans-33" transform="scale(0.015625)"/>
       </defs>
       <use xlink:href="#DejaVuSans-33"/>
       <use x="63.623047" xlink:href="#DejaVuSans-30"/>
      </g>
     </g>
    </g>
    <g id="text_12">
     <!-- Days in March -->
     <g transform="translate(185.946875 280.276562)scale(0.1 -0.1)">
      <defs>
       <path d="M 1259 4147 
L 1259 519 
L 2022 519 
Q 2988 519 3436 956 
Q 3884 1394 3884 2338 
Q 3884 3275 3436 3711 
Q 2988 4147 2022 4147 
L 1259 4147 
z
M 628 4666 
L 1925 4666 
Q 3281 4666 3915 4102 
Q 4550 3538 4550 2338 
Q 4550 1131 3912 565 
Q 3275 0 1925 0 
L 628 0 
L 628 4666 
z
" id="DejaVuSans-44" transform="scale(0.015625)"/>
       <path d="M 2194 1759 
Q 1497 1759 1228 1600 
Q 959 1441 959 1056 
Q 959 750 1161 570 
Q 1363 391 1709 391 
Q 2188 391 2477 730 
Q 2766 1069 2766 1631 
L 2766 1759 
L 2194 1759 
z
M 3341 1997 
L 3341 0 
L 2766 0 
L 2766 531 
Q 2569 213 2275 61 
Q 1981 -91 1556 -91 
Q 1019 -91 701 211 
Q 384 513 384 1019 
Q 384 1609 779 1909 
Q 1175 2209 1959 2209 
L 2766 2209 
L 2766 2266 
Q 2766 2663 2505 2880 
Q 2244 3097 1772 3097 
Q 1472 3097 1187 3025 
Q 903 2953 641 2809 
L 641 3341 
Q 956 3463 1253 3523 
Q 1550 3584 1831 3584 
Q 2591 3584 2966 3190 
Q 3341 2797 3341 1997 
z
" id="DejaVuSans-61" transform="scale(0.015625)"/>
       <path d="M 2059 -325 
Q 1816 -950 1584 -1140 
Q 1353 -1331 966 -1331 
L 506 -1331 
L 506 -850 
L 844 -850 
Q 1081 -850 1212 -737 
Q 1344 -625 1503 -206 
L 1606 56 
L 191 3500 
L 800 3500 
L 1894 763 
L 2988 3500 
L 3597 3500 
L 2059 -325 
z
" id="DejaVuSans-79" transform="scale(0.015625)"/>
       <path d="M 2834 3397 
L 2834 2853 
Q 2591 2978 2328 3040 
Q 2066 3103 1784 3103 
Q 1356 3103 1142 2972 
Q 928 2841 928 2578 
Q 928 2378 1081 2264 
Q 1234 2150 1697 2047 
L 1894 2003 
Q 2506 1872 2764 1633 
Q 3022 1394 3022 966 
Q 3022 478 2636 193 
Q 2250 -91 1575 -91 
Q 1294 -91 989 -36 
Q 684 19 347 128 
L 347 722 
Q 666 556 975 473 
Q 1284 391 1588 391 
Q 1994 391 2212 530 
Q 2431 669 2431 922 
Q 2431 1156 2273 1281 
Q 2116 1406 1581 1522 
L 1381 1569 
Q 847 1681 609 1914 
Q 372 2147 372 2553 
Q 372 3047 722 3315 
Q 1072 3584 1716 3584 
Q 2034 3584 2315 3537 
Q 2597 3491 2834 3397 
z
" id="DejaVuSans-73" transform="scale(0.015625)"/>
       <path id="DejaVuSans-20" transform="scale(0.015625)"/>
       <path d="M 603 3500 
L 1178 3500 
L 1178 0 
L 603 0 
L 603 3500 
z
M 603 4863 
L 1178 4863 
L 1178 4134 
L 603 4134 
L 603 4863 
z
" id="DejaVuSans-69" transform="scale(0.015625)"/>
       <path d="M 3513 2113 
L 3513 0 
L 2938 0 
L 2938 2094 
Q 2938 2591 2744 2837 
Q 2550 3084 2163 3084 
Q 1697 3084 1428 2787 
Q 1159 2491 1159 1978 
L 1159 0 
L 581 0 
L 581 3500 
L 1159 3500 
L 1159 2956 
Q 1366 3272 1645 3428 
Q 1925 3584 2291 3584 
Q 2894 3584 3203 3211 
Q 3513 2838 3513 2113 
z
" id="DejaVuSans-6e" transform="scale(0.015625)"/>
       <path d="M 628 4666 
L 1569 4666 
L 2759 1491 
L 3956 4666 
L 4897 4666 
L 4897 0 
L 4281 0 
L 4281 4097 
L 3078 897 
L 2444 897 
L 1241 4097 
L 1241 0 
L 628 0 
L 628 4666 
z
" id="DejaVuSans-4d" transform="scale(0.015625)"/>
       <path d="M 2631 2963 
Q 2534 3019 2420 3045 
Q 2306 3072 2169 3072 
Q 1681 3072 1420 2755 
Q 1159 2438 1159 1844 
L 1159 0 
L 581 0 
L 581 3500 
L 1159 3500 
L 1159 2956 
Q 1341 3275 1631 3429 
Q 1922 3584 2338 3584 
Q 2397 3584 2469 3576 
Q 2541 3569 2628 3553 
L 2631 2963 
z
" id="DejaVuSans-72" transform="scale(0.015625)"/>
       <path d="M 3122 3366 
L 3122 2828 
Q 2878 2963 2633 3030 
Q 2388 3097 2138 3097 
Q 1578 3097 1268 2742 
Q 959 2388 959 1747 
Q 959 1106 1268 751 
Q 1578 397 2138 397 
Q 2388 397 2633 464 
Q 2878 531 3122 666 
L 3122 134 
Q 2881 22 2623 -34 
Q 2366 -91 2075 -91 
Q 1284 -91 818 406 
Q 353 903 353 1747 
Q 353 2603 823 3093 
Q 1294 3584 2113 3584 
Q 2378 3584 2631 3529 
Q 2884 3475 3122 3366 
z
" id="DejaVuSans-63" transform="scale(0.015625)"/>
       <path d="M 3513 2113 
L 3513 0 
L 2938 0 
L 2938 2094 
Q 2938 2591 2744 2837 
Q 2550 3084 2163 3084 
Q 1697 3084 1428 2787 
Q 1159 2491 1159 1978 
L 1159 0 
L 581 0 
L 581 4863 
L 1159 4863 
L 1159 2956 
Q 1366 3272 1645 3428 
Q 1925 3584 2291 3584 
Q 2894 3584 3203 3211 
Q 3513 2838 3513 2113 
z
" id="DejaVuSans-68" transform="scale(0.015625)"/>
      </defs>
      <use xlink:href="#DejaVuSans-44"/>
      <use x="77.001953" xlink:href="#DejaVuSans-61"/>
      <use x="138.28125" xlink:href="#DejaVuSans-79"/>
      <use x="197.460938" xlink:href="#DejaVuSans-73"/>
      <use x="249.560547" xlink:href="#DejaVuSans-20"/>
      <use x="281.347656" xlink:href="#DejaVuSans-69"/>
      <use x="309.130859" xlink:href="#DejaVuSans-6e"/>
      <use x="372.509766" xlink:href="#DejaVuSans-20"/>
      <use x="404.296875" xlink:href="#DejaVuSans-4d"/>
      <use x="490.576172" xlink:href="#DejaVuSans-61"/>
      <use x="551.855469" xlink:href="#DejaVuSans-72"/>
      <use x="590.71875" xlink:href="#DejaVuSans-63"/>
      <use x="645.699219" xlink:href="#DejaVuSans-68"/>
     </g>
    </g>
   </g>
   <g id="matplotlib.axis_4">
    <g id="ytick_4">
     <g id="line2d_36">
      <path clip-path="url(#p0ee73e0059)" d="M 54 252 
L 388.8 252 
" style="fill:none;stroke:#b0b0b0;stroke-linecap:square;stroke-width:0.8;"/>
     </g>
     <g id="line2d_37">
      <g>
       <use style="stroke:#000000;stroke-width:0.8;" x="54" xlink:href="#mb9f5dc6938" y="252"/>
      </g>
     </g>
     <g id="text_13">
      <!-- 0 -->
      <g transform="translate(40.6375 255.799219)scale(0.1 -0.1)">
       <use xlink:href="#DejaVuSans-30"/>
      </g>
     </g>
    </g>
    <g id="ytick_5">
     <g id="line2d_38">
      <path clip-path="url(#p0ee73e0059)" d="M 54 216.059504 
L 388.8 216.059504 
" style="fill:none;stroke:#b0b0b0;stroke-linecap:square;stroke-width:0.8;"/>
     </g>
     <g id="line2d_39">
      <g>
       <use style="stroke:#000000;stroke-width:0.8;" x="54" xlink:href="#mb9f5dc6938" y="216.059504"/>
      </g>
     </g>
     <g id="text_14">
      <!-- 20 -->
      <g transform="translate(34.275 219.858723)scale(0.1 -0.1)">
       <use xlink:href="#DejaVuSans-32"/>
       <use x="63.623047" xlink:href="#DejaVuSans-30"/>
      </g>
     </g>
    </g>
    <g id="ytick_6">
     <g id="line2d_40">
      <path clip-path="url(#p0ee73e0059)" d="M 54 180.119008 
L 388.8 180.119008 
" style="fill:none;stroke:#b0b0b0;stroke-linecap:square;stroke-width:0.8;"/>
     </g>
     <g id="line2d_41">
      <g>
       <use style="stroke:#000000;stroke-width:0.8;" x="54" xlink:href="#mb9f5dc6938" y="180.119008"/>
      </g>
     </g>
     <g id="text_15">
      <!-- 40 -->
      <g transform="translate(34.275 183.918227)scale(0.1 -0.1)">
       <use xlink:href="#DejaVuSans-34"/>
       <use x="63.623047" xlink:href="#DejaVuSans-30"/>
      </g>
     </g>
    </g>
    <g id="text_16">
     <!-- 2000 -->
     <g transform="translate(28.195312 215.306818)rotate(-90)scale(0.1 -0.1)">
      <use xlink:href="#DejaVuSans-32"/>
      <use x="63.623047" xlink:href="#DejaVuSans-30"/>
      <use x="127.246094" xlink:href="#DejaVuSans-30"/>
      <use x="190.869141" xlink:href="#DejaVuSans-30"/>
     </g>
    </g>
   </g>
   <g id="line2d_42">
    <path clip-path="url(#p0ee73e0059)" d="M 64.4625 203.480331 
L 74.925 192.698182 
L 85.3875 201.683306 
L 95.85 205.277355 
L 106.3125 203.480331 
L 116.775 196.292231 
L 127.2375 198.089256 
L 137.7 196.292231 
L 148.1625 160.351736 
L 158.625 174.727934 
L 169.0875 192.698182 
L 179.55 189.104132 
L 190.0125 207.07438 
L 200.475 207.07438 
L 210.9375 194.495207 
L 221.4 185.510083 
L 231.8625 198.089256 
L 242.325 219.653554 
L 252.7875 217.856529 
L 263.25 199.886281 
L 273.7125 187.307107 
L 284.175 185.510083 
L 294.6375 185.510083 
L 305.1 192.698182 
L 315.5625 192.698182 
L 326.025 174.727934 
L 336.4875 196.292231 
L 346.95 190.901157 
L 357.4125 180.119008 
L 367.875 187.307107 
L 378.3375 205.277355 
" style="fill:none;stroke:#008000;stroke-dasharray:9.6,2.4,1.5,2.4;stroke-dashoffset:0;stroke-width:1.5;"/>
    <defs>
     <path d="M -3 3 
L 3 3 
L 3 -3 
L -3 -3 
z
" id="m147f424442" style="stroke:#008000;stroke-linejoin:miter;"/>
    </defs>
    <g clip-path="url(#p0ee73e0059)">
     <use style="fill:#008000;stroke:#008000;stroke-linejoin:miter;" x="64.4625" xlink:href="#m147f424442" y="203.480331"/>
     <use style="fill:#008000;stroke:#008000;stroke-linejoin:miter;" x="74.925" xlink:href="#m147f424442" y="192.698182"/>
     <use style="fill:#008000;stroke:#008000;stroke-linejoin:miter;" x="85.3875" xlink:href="#m147f424442" y="201.683306"/>
     <use style="fill:#008000;stroke:#008000;stroke-linejoin:miter;" x="95.85" xlink:href="#m147f424442" y="205.277355"/>
     <use style="fill:#008000;stroke:#008000;stroke-linejoin:miter;" x="106.3125" xlink:href="#m147f424442" y="203.480331"/>
     <use style="fill:#008000;stroke:#008000;stroke-linejoin:miter;" x="116.775" xlink:href="#m147f424442" y="196.292231"/>
     <use style="fill:#008000;stroke:#008000;stroke-linejoin:miter;" x="127.2375" xlink:href="#m147f424442" y="198.089256"/>
     <use style="fill:#008000;stroke:#008000;stroke-linejoin:miter;" x="137.7" xlink:href="#m147f424442" y="196.292231"/>
     <use style="fill:#008000;stroke:#008000;stroke-linejoin:miter;" x="148.1625" xlink:href="#m147f424442" y="160.351736"/>
     <use style="fill:#008000;stroke:#008000;stroke-linejoin:miter;" x="158.625" xlink:href="#m147f424442" y="174.727934"/>
     <use style="fill:#008000;stroke:#008000;stroke-linejoin:miter;" x="169.0875" xlink:href="#m147f424442" y="192.698182"/>
     <use style="fill:#008000;stroke:#008000;stroke-linejoin:miter;" x="179.55" xlink:href="#m147f424442" y="189.104132"/>
     <use style="fill:#008000;stroke:#008000;stroke-linejoin:miter;" x="190.0125" xlink:href="#m147f424442" y="207.07438"/>
     <use style="fill:#008000;stroke:#008000;stroke-linejoin:miter;" x="200.475" xlink:href="#m147f424442" y="207.07438"/>
     <use style="fill:#008000;stroke:#008000;stroke-linejoin:miter;" x="210.9375" xlink:href="#m147f424442" y="194.495207"/>
     <use style="fill:#008000;stroke:#008000;stroke-linejoin:miter;" x="221.4" xlink:href="#m147f424442" y="185.510083"/>
     <use style="fill:#008000;stroke:#008000;stroke-linejoin:miter;" x="231.8625" xlink:href="#m147f424442" y="198.089256"/>
     <use style="fill:#008000;stroke:#008000;stroke-linejoin:miter;" x="242.325" xlink:href="#m147f424442" y="219.653554"/>
     <use style="fill:#008000;stroke:#008000;stroke-linejoin:miter;" x="252.7875" xlink:href="#m147f424442" y="217.856529"/>
     <use style="fill:#008000;stroke:#008000;stroke-linejoin:miter;" x="263.25" xlink:href="#m147f424442" y="199.886281"/>
     <use style="fill:#008000;stroke:#008000;stroke-linejoin:miter;" x="273.7125" xlink:href="#m147f424442" y="187.307107"/>
     <use style="fill:#008000;stroke:#008000;stroke-linejoin:miter;" x="284.175" xlink:href="#m147f424442" y="185.510083"/>
     <use style="fill:#008000;stroke:#008000;stroke-linejoin:miter;" x="294.6375" xlink:href="#m147f424442" y="185.510083"/>
     <use style="fill:#008000;stroke:#008000;stroke-linejoin:miter;" x="305.1" xlink:href="#m147f424442" y="192.698182"/>
     <use style="fill:#008000;stroke:#008000;stroke-linejoin:miter;" x="315.5625" xlink:href="#m147f424442" y="192.698182"/>
     <use style="fill:#008000;stroke:#008000;stroke-linejoin:miter;" x="326.025" xlink:href="#m147f424442" y="174.727934"/>
     <use style="fill:#008000;stroke:#008000;stroke-linejoin:miter;" x="336.4875" xlink:href="#m147f424442" y="196.292231"/>
     <use style="fill:#008000;stroke:#008000;stroke-linejoin:miter;" x="346.95" xlink:href="#m147f424442" y="190.901157"/>
     <use style="fill:#008000;stroke:#008000;stroke-linejoin:miter;" x="357.4125" xlink:href="#m147f424442" y="180.119008"/>
     <use style="fill:#008000;stroke:#008000;stroke-linejoin:miter;" x="367.875" xlink:href="#m147f424442" y="187.307107"/>
     <use style="fill:#008000;stroke:#008000;stroke-linejoin:miter;" x="378.3375" xlink:href="#m147f424442" y="205.277355"/>
    </g>
   </g>
   <g id="patch_8">
    <path d="M 54 252 
L 54 153.163636 
" style="fill:none;stroke:#000000;stroke-linecap:square;stroke-linejoin:miter;stroke-width:0.8;"/>
   </g>
   <g id="patch_9">
    <path d="M 388.8 252 
L 388.8 153.163636 
" style="fill:none;stroke:#000000;stroke-linecap:square;stroke-linejoin:miter;stroke-width:0.8;"/>
   </g>
   <g id="patch_10">
    <path d="M 54 252 
L 388.8 252 
" style="fill:none;stroke:#000000;stroke-linecap:square;stroke-linejoin:miter;stroke-width:0.8;"/>
   </g>
   <g id="patch_11">
    <path d="M 54 153.163636 
L 388.8 153.163636 
" style="fill:none;stroke:#000000;stroke-linecap:square;stroke-linejoin:miter;stroke-width:0.8;"/>
   </g>
  </g>
 </g>
 <defs>
  <clipPath id="pe6df4b6e75">
   <rect height="98.836364" width="334.8" x="54" y="34.56"/>
  </clipPath>
  <clipPath id="p0ee73e0059">
   <rect height="98.836364" width="334.8" x="54" y="153.163636"/>
  </clipPath>
 </defs>
</svg>
