<?xml version="1.0" encoding="utf-8" standalone="no"?>
<!DOCTYPE svg PUBLIC "-//W3C//DTD SVG 1.1//EN"
  "http://www.w3.org/Graphics/SVG/1.1/DTD/svg11.dtd">
<svg height="345.6pt" version="1.1" viewBox="0 0 460.8 345.6" width="460.8pt" xmlns="http://www.w3.org/2000/svg" xmlns:xlink="http://www.w3.org/1999/xlink">
 <metadata>
  <rdf:RDF xmlns:cc="http://creativecommons.org/ns#" xmlns:dc="http://purl.org/dc/elements/1.1/" xmlns:rdf="http://www.w3.org/1999/02/22-rdf-syntax-ns#">
   <cc:Work>
    <dc:type rdf:resource="http://purl.org/dc/dcmitype/StillImage"/>
    <dc:date>2021-07-23T12:34:12.466360</dc:date>
    <dc:format>image/svg+xml</dc:format>
    <dc:creator>
     <cc:Agent>
      <dc:title>Matplotlib v3.4.2, https://matplotlib.org/</dc:title>
     </cc:Agent>
    </dc:creator>
   </cc:Work>
  </rdf:RDF>
 </metadata>
 <defs>
  <style type="text/css">*{stroke-linecap:butt;stroke-linejoin:round;}</style>
 </defs>
 <g id="figure_1">
  <g id="patch_1">
   <path d="M 0 345.6 
L 460.8 345.6 
L 460.8 0 
L 0 0 
z
" style="fill:#ffffff;"/>
  </g>
  <g id="axes_1">
   <g id="patch_2">
    <path d="M 57.6 162.432 
L 414.72 162.432 
L 414.72 41.472 
L 57.6 41.472 
z
" style="fill:#ffffff;"/>
   </g>
   <g id="matplotlib.axis_1">
    <g id="xtick_1">
     <g id="line2d_1">
      <path clip-path="url(#p4840b26246)" d="M 57.6 162.432 
L 57.6 41.472 
" style="fill:none;stroke:#b0b0b0;stroke-linecap:square;stroke-width:0.8;"/>
     </g>
     <g id="line2d_2">
      <defs>
       <path d="M 0 0 
L 0 3.5 
" id="mda9fa903ec" style="stroke:#000000;stroke-width:0.8;"/>
      </defs>
      <g>
       <use style="stroke:#000000;stroke-width:0.8;" x="57.6" xlink:href="#mda9fa903ec" y="162.432"/>
      </g>
     </g>
    </g>
    <g id="xtick_2">
     <g id="line2d_3">
      <path clip-path="url(#p4840b26246)" d="M 113.4 162.432 
L 113.4 41.472 
" style="fill:none;stroke:#b0b0b0;stroke-linecap:square;stroke-width:0.8;"/>
     </g>
     <g id="line2d_4">
      <g>
       <use style="stroke:#000000;stroke-width:0.8;" x="113.4" xlink:href="#mda9fa903ec" y="162.432"/>
      </g>
     </g>
    </g>
    <g id="xtick_3">
     <g id="line2d_5">
      <path clip-path="url(#p4840b26246)" d="M 169.2 162.432 
L 169.2 41.472 
" style="fill:none;stroke:#b0b0b0;stroke-linecap:square;stroke-width:0.8;"/>
     </g>
     <g id="line2d_6">
      <g>
       <use style="stroke:#000000;stroke-width:0.8;" x="169.2" xlink:href="#mda9fa903ec" y="162.432"/>
      </g>
     </g>
    </g>
    <g id="xtick_4">
     <g id="line2d_7">
      <path clip-path="url(#p4840b26246)" d="M 225 162.432 
L 225 41.472 
" style="fill:none;stroke:#b0b0b0;stroke-linecap:square;stroke-width:0.8;"/>
     </g>
     <g id="line2d_8">
      <g>
       <use style="stroke:#000000;stroke-width:0.8;" x="225" xlink:href="#mda9fa903ec" y="162.432"/>
      </g>
     </g>
    </g>
    <g id="xtick_5">
     <g id="line2d_9">
      <path clip-path="url(#p4840b26246)" d="M 280.8 162.432 
L 280.8 41.472 
" style="fill:none;stroke:#b0b0b0;stroke-linecap:square;stroke-width:0.8;"/>
     </g>
     <g id="line2d_10">
      <g>
       <use style="stroke:#000000;stroke-width:0.8;" x="280.8" xlink:href="#mda9fa903ec" y="162.432"/>
      </g>
     </g>
    </g>
    <g id="xtick_6">
     <g id="line2d_11">
      <path clip-path="url(#p4840b26246)" d="M 336.6 162.432 
L 336.6 41.472 
" style="fill:none;stroke:#b0b0b0;stroke-linecap:square;stroke-width:0.8;"/>
     </g>
     <g id="line2d_12">
      <g>
       <use style="stroke:#000000;stroke-width:0.8;" x="336.6" xlink:href="#mda9fa903ec" y="162.432"/>
      </g>
     </g>
    </g>
    <g id="xtick_7">
     <g id="line2d_13">
      <path clip-path="url(#p4840b26246)" d="M 392.4 162.432 
L 392.4 41.472 
" style="fill:none;stroke:#b0b0b0;stroke-linecap:square;stroke-width:0.8;"/>
     </g>
     <g id="line2d_14">
      <g>
       <use style="stroke:#000000;stroke-width:0.8;" x="392.4" xlink:href="#mda9fa903ec" y="162.432"/>
      </g>
     </g>
    </g>
   </g>
   <g id="matplotlib.axis_2">
    <g id="ytick_1">
     <g id="line2d_15">
      <path clip-path="url(#p4840b26246)" d="M 57.6 162.432 
L 414.72 162.432 
" style="fill:none;stroke:#b0b0b0;stroke-linecap:square;stroke-width:0.8;"/>
     </g>
     <g id="line2d_16">
      <defs>
       <path d="M 0 0 
L -3.5 0 
" id="maf62aa912b" style="stroke:#000000;stroke-width:0.8;"/>
      </defs>
      <g>
       <use style="stroke:#000000;stroke-width:0.8;" x="57.6" xlink:href="#maf62aa912b" y="162.432"/>
      </g>
     </g>
     <g id="text_1">
      <!-- 0 -->
      <g transform="translate(44.2375 166.231219)scale(0.1 -0.1)">
       <defs>
        <path d="M 2034 4250 
Q 1547 4250 1301 3770 
Q 1056 3291 1056 2328 
Q 1056 1369 1301 889 
Q 1547 409 2034 409 
Q 2525 409 2770 889 
Q 3016 1369 3016 2328 
Q 3016 3291 2770 3770 
Q 2525 4250 2034 4250 
z
M 2034 4750 
Q 2819 4750 3233 4129 
Q 3647 3509 3647 2328 
Q 3647 1150 3233 529 
Q 2819 -91 2034 -91 
Q 1250 -91 836 529 
Q 422 1150 422 2328 
Q 422 3509 836 4129 
Q 1250 4750 2034 4750 
z
" id="DejaVuSans-30" transform="scale(0.015625)"/>
       </defs>
       <use xlink:href="#DejaVuSans-30"/>
      </g>
     </g>
    </g>
    <g id="ytick_2">
     <g id="line2d_17">
      <path clip-path="url(#p4840b26246)" d="M 57.6 140.439273 
L 414.72 140.439273 
" style="fill:none;stroke:#b0b0b0;stroke-linecap:square;stroke-width:0.8;"/>
     </g>
     <g id="line2d_18">
      <g>
       <use style="stroke:#000000;stroke-width:0.8;" x="57.6" xlink:href="#maf62aa912b" y="140.439273"/>
      </g>
     </g>
     <g id="text_2">
      <!-- 10 -->
      <g transform="translate(37.875 144.238491)scale(0.1 -0.1)">
       <defs>
        <path d="M 794 531 
L 1825 531 
L 1825 4091 
L 703 3866 
L 703 4441 
L 1819 4666 
L 2450 4666 
L 2450 531 
L 3481 531 
L 3481 0 
L 794 0 
L 794 531 
z
" id="DejaVuSans-31" transform="scale(0.015625)"/>
       </defs>
       <use xlink:href="#DejaVuSans-31"/>
       <use x="63.623047" xlink:href="#DejaVuSans-30"/>
      </g>
     </g>
    </g>
    <g id="ytick_3">
     <g id="line2d_19">
      <path clip-path="url(#p4840b26246)" d="M 57.6 118.446545 
L 414.72 118.446545 
" style="fill:none;stroke:#b0b0b0;stroke-linecap:square;stroke-width:0.8;"/>
     </g>
     <g id="line2d_20">
      <g>
       <use style="stroke:#000000;stroke-width:0.8;" x="57.6" xlink:href="#maf62aa912b" y="118.446545"/>
      </g>
     </g>
     <g id="text_3">
      <!-- 20 -->
      <g transform="translate(37.875 122.245764)scale(0.1 -0.1)">
       <defs>
        <path d="M 1228 531 
L 3431 531 
L 3431 0 
L 469 0 
L 469 531 
Q 828 903 1448 1529 
Q 2069 2156 2228 2338 
Q 2531 2678 2651 2914 
Q 2772 3150 2772 3378 
Q 2772 3750 2511 3984 
Q 2250 4219 1831 4219 
Q 1534 4219 1204 4116 
Q 875 4013 500 3803 
L 500 4441 
Q 881 4594 1212 4672 
Q 1544 4750 1819 4750 
Q 2544 4750 2975 4387 
Q 3406 4025 3406 3419 
Q 3406 3131 3298 2873 
Q 3191 2616 2906 2266 
Q 2828 2175 2409 1742 
Q 1991 1309 1228 531 
z
" id="DejaVuSans-32" transform="scale(0.015625)"/>
       </defs>
       <use xlink:href="#DejaVuSans-32"/>
       <use x="63.623047" xlink:href="#DejaVuSans-30"/>
      </g>
     </g>
    </g>
    <g id="ytick_4">
     <g id="line2d_21">
      <path clip-path="url(#p4840b26246)" d="M 57.6 96.453818 
L 414.72 96.453818 
" style="fill:none;stroke:#b0b0b0;stroke-linecap:square;stroke-width:0.8;"/>
     </g>
     <g id="line2d_22">
      <g>
       <use style="stroke:#000000;stroke-width:0.8;" x="57.6" xlink:href="#maf62aa912b" y="96.453818"/>
      </g>
     </g>
     <g id="text_4">
      <!-- 30 -->
      <g transform="translate(37.875 100.253037)scale(0.1 -0.1)">
       <defs>
        <path d="M 2597 2516 
Q 3050 2419 3304 2112 
Q 3559 1806 3559 1356 
Q 3559 666 3084 287 
Q 2609 -91 1734 -91 
Q 1441 -91 1130 -33 
Q 819 25 488 141 
L 488 750 
Q 750 597 1062 519 
Q 1375 441 1716 441 
Q 2309 441 2620 675 
Q 2931 909 2931 1356 
Q 2931 1769 2642 2001 
Q 2353 2234 1838 2234 
L 1294 2234 
L 1294 2753 
L 1863 2753 
Q 2328 2753 2575 2939 
Q 2822 3125 2822 3475 
Q 2822 3834 2567 4026 
Q 2313 4219 1838 4219 
Q 1578 4219 1281 4162 
Q 984 4106 628 3988 
L 628 4550 
Q 988 4650 1302 4700 
Q 1616 4750 1894 4750 
Q 2613 4750 3031 4423 
Q 3450 4097 3450 3541 
Q 3450 3153 3228 2886 
Q 3006 2619 2597 2516 
z
" id="DejaVuSans-33" transform="scale(0.015625)"/>
       </defs>
       <use xlink:href="#DejaVuSans-33"/>
       <use x="63.623047" xlink:href="#DejaVuSans-30"/>
      </g>
     </g>
    </g>
    <g id="ytick_5">
     <g id="line2d_23">
      <path clip-path="url(#p4840b26246)" d="M 57.6 74.461091 
L 414.72 74.461091 
" style="fill:none;stroke:#b0b0b0;stroke-linecap:square;stroke-width:0.8;"/>
     </g>
     <g id="line2d_24">
      <g>
       <use style="stroke:#000000;stroke-width:0.8;" x="57.6" xlink:href="#maf62aa912b" y="74.461091"/>
      </g>
     </g>
     <g id="text_5">
      <!-- 40 -->
      <g transform="translate(37.875 78.26031)scale(0.1 -0.1)">
       <defs>
        <path d="M 2419 4116 
L 825 1625 
L 2419 1625 
L 2419 4116 
z
M 2253 4666 
L 3047 4666 
L 3047 1625 
L 3713 1625 
L 3713 1100 
L 3047 1100 
L 3047 0 
L 2419 0 
L 2419 1100 
L 313 1100 
L 313 1709 
L 2253 4666 
z
" id="DejaVuSans-34" transform="scale(0.015625)"/>
       </defs>
       <use xlink:href="#DejaVuSans-34"/>
       <use x="63.623047" xlink:href="#DejaVuSans-30"/>
      </g>
     </g>
    </g>
    <g id="ytick_6">
     <g id="line2d_25">
      <path clip-path="url(#p4840b26246)" d="M 57.6 52.468364 
L 414.72 52.468364 
" style="fill:none;stroke:#b0b0b0;stroke-linecap:square;stroke-width:0.8;"/>
     </g>
     <g id="line2d_26">
      <g>
       <use style="stroke:#000000;stroke-width:0.8;" x="57.6" xlink:href="#maf62aa912b" y="52.468364"/>
      </g>
     </g>
     <g id="text_6">
      <!-- 50 -->
      <g transform="translate(37.875 56.267582)scale(0.1 -0.1)">
       <defs>
        <path d="M 691 4666 
L 3169 4666 
L 3169 4134 
L 1269 4134 
L 1269 2991 
Q 1406 3038 1543 3061 
Q 1681 3084 1819 3084 
Q 2600 3084 3056 2656 
Q 3513 2228 3513 1497 
Q 3513 744 3044 326 
Q 2575 -91 1722 -91 
Q 1428 -91 1123 -41 
Q 819 9 494 109 
L 494 744 
Q 775 591 1075 516 
Q 1375 441 1709 441 
Q 2250 441 2565 725 
Q 2881 1009 2881 1497 
Q 2881 1984 2565 2268 
Q 2250 2553 1709 2553 
Q 1456 2553 1204 2497 
Q 953 2441 691 2322 
L 691 4666 
z
" id="DejaVuSans-35" transform="scale(0.015625)"/>
       </defs>
       <use xlink:href="#DejaVuSans-35"/>
       <use x="63.623047" xlink:href="#DejaVuSans-30"/>
      </g>
     </g>
    </g>
    <g id="text_7">
     <!-- 2020 -->
     <g transform="translate(31.795313 114.677)rotate(-90)scale(0.1 -0.1)">
      <use xlink:href="#DejaVuSans-32"/>
      <use x="63.623047" xlink:href="#DejaVuSans-30"/>
      <use x="127.246094" xlink:href="#DejaVuSans-32"/>
      <use x="190.869141" xlink:href="#DejaVuSans-30"/>
     </g>
    </g>
   </g>
   <g id="line2d_27">
    <path clip-path="url(#p4840b26246)" d="M 68.76 118.446545 
L 79.92 114.048 
L 91.08 85.457455 
L 102.24 78.859636 
L 113.4 96.453818 
L 124.56 96.453818 
L 135.72 98.653091 
L 146.88 98.653091 
L 158.04 89.856 
L 169.2 52.468364 
L 180.36 94.254545 
L 191.52 94.254545 
L 202.68 74.461091 
L 213.84 89.856 
L 225 89.856 
L 236.16 105.250909 
L 247.32 105.250909 
L 258.48 94.254545 
L 269.64 94.254545 
L 280.8 63.464727 
L 291.96 89.856 
L 303.12 111.848727 
L 314.28 111.848727 
L 325.44 89.856 
L 336.6 81.058909 
L 347.76 85.457455 
L 358.92 76.660364 
L 370.08 65.664 
L 381.24 65.664 
L 392.4 65.664 
L 403.56 70.062545 
" style="fill:none;stroke:#ba55d3;stroke-dasharray:1.5,2.475;stroke-dashoffset:0;stroke-width:1.5;"/>
    <defs>
     <path d="M 0 3 
C 0.795609 3 1.55874 2.683901 2.12132 2.12132 
C 2.683901 1.55874 3 0.795609 3 0 
C 3 -0.795609 2.683901 -1.55874 2.12132 -2.12132 
C 1.55874 -2.683901 0.795609 -3 0 -3 
C -0.795609 -3 -1.55874 -2.683901 -2.12132 -2.12132 
C -2.683901 -1.55874 -3 -0.795609 -3 0 
C -3 0.795609 -2.683901 1.55874 -2.12132 2.12132 
C -1.55874 2.683901 -0.795609 3 0 3 
z
" id="m91975dceb5" style="stroke:#ba55d3;"/>
    </defs>
    <g clip-path="url(#p4840b26246)">
     <use style="fill:#ba55d3;stroke:#ba55d3;" x="68.76" xlink:href="#m91975dceb5" y="118.446545"/>
     <use style="fill:#ba55d3;stroke:#ba55d3;" x="79.92" xlink:href="#m91975dceb5" y="114.048"/>
     <use style="fill:#ba55d3;stroke:#ba55d3;" x="91.08" xlink:href="#m91975dceb5" y="85.457455"/>
     <use style="fill:#ba55d3;stroke:#ba55d3;" x="102.24" xlink:href="#m91975dceb5" y="78.859636"/>
     <use style="fill:#ba55d3;stroke:#ba55d3;" x="113.4" xlink:href="#m91975dceb5" y="96.453818"/>
     <use style="fill:#ba55d3;stroke:#ba55d3;" x="124.56" xlink:href="#m91975dceb5" y="96.453818"/>
     <use style="fill:#ba55d3;stroke:#ba55d3;" x="135.72" xlink:href="#m91975dceb5" y="98.653091"/>
     <use style="fill:#ba55d3;stroke:#ba55d3;" x="146.88" xlink:href="#m91975dceb5" y="98.653091"/>
     <use style="fill:#ba55d3;stroke:#ba55d3;" x="158.04" xlink:href="#m91975dceb5" y="89.856"/>
     <use style="fill:#ba55d3;stroke:#ba55d3;" x="169.2" xlink:href="#m91975dceb5" y="52.468364"/>
     <use style="fill:#ba55d3;stroke:#ba55d3;" x="180.36" xlink:href="#m91975dceb5" y="94.254545"/>
     <use style="fill:#ba55d3;stroke:#ba55d3;" x="191.52" xlink:href="#m91975dceb5" y="94.254545"/>
     <use style="fill:#ba55d3;stroke:#ba55d3;" x="202.68" xlink:href="#m91975dceb5" y="74.461091"/>
     <use style="fill:#ba55d3;stroke:#ba55d3;" x="213.84" xlink:href="#m91975dceb5" y="89.856"/>
     <use style="fill:#ba55d3;stroke:#ba55d3;" x="225" xlink:href="#m91975dceb5" y="89.856"/>
     <use style="fill:#ba55d3;stroke:#ba55d3;" x="236.16" xlink:href="#m91975dceb5" y="105.250909"/>
     <use style="fill:#ba55d3;stroke:#ba55d3;" x="247.32" xlink:href="#m91975dceb5" y="105.250909"/>
     <use style="fill:#ba55d3;stroke:#ba55d3;" x="258.48" xlink:href="#m91975dceb5" y="94.254545"/>
     <use style="fill:#ba55d3;stroke:#ba55d3;" x="269.64" xlink:href="#m91975dceb5" y="94.254545"/>
     <use style="fill:#ba55d3;stroke:#ba55d3;" x="280.8" xlink:href="#m91975dceb5" y="63.464727"/>
     <use style="fill:#ba55d3;stroke:#ba55d3;" x="291.96" xlink:href="#m91975dceb5" y="89.856"/>
     <use style="fill:#ba55d3;stroke:#ba55d3;" x="303.12" xlink:href="#m91975dceb5" y="111.848727"/>
     <use style="fill:#ba55d3;stroke:#ba55d3;" x="314.28" xlink:href="#m91975dceb5" y="111.848727"/>
     <use style="fill:#ba55d3;stroke:#ba55d3;" x="325.44" xlink:href="#m91975dceb5" y="89.856"/>
     <use style="fill:#ba55d3;stroke:#ba55d3;" x="336.6" xlink:href="#m91975dceb5" y="81.058909"/>
     <use style="fill:#ba55d3;stroke:#ba55d3;" x="347.76" xlink:href="#m91975dceb5" y="85.457455"/>
     <use style="fill:#ba55d3;stroke:#ba55d3;" x="358.92" xlink:href="#m91975dceb5" y="76.660364"/>
     <use style="fill:#ba55d3;stroke:#ba55d3;" x="370.08" xlink:href="#m91975dceb5" y="65.664"/>
     <use style="fill:#ba55d3;stroke:#ba55d3;" x="381.24" xlink:href="#m91975dceb5" y="65.664"/>
     <use style="fill:#ba55d3;stroke:#ba55d3;" x="392.4" xlink:href="#m91975dceb5" y="65.664"/>
     <use style="fill:#ba55d3;stroke:#ba55d3;" x="403.56" xlink:href="#m91975dceb5" y="70.062545"/>
    </g>
   </g>
   <g id="patch_3">
    <path d="M 57.6 162.432 
L 57.6 41.472 
" style="fill:none;stroke:#000000;stroke-linecap:square;stroke-linejoin:miter;stroke-width:0.8;"/>
   </g>
   <g id="patch_4">
    <path d="M 414.72 162.432 
L 414.72 41.472 
" style="fill:none;stroke:#000000;stroke-linecap:square;stroke-linejoin:miter;stroke-width:0.8;"/>
   </g>
   <g id="patch_5">
    <path d="M 57.6 162.432 
L 414.72 162.432 
" style="fill:none;stroke:#000000;stroke-linecap:square;stroke-linejoin:miter;stroke-width:0.8;"/>
   </g>
   <g id="patch_6">
    <path d="M 57.6 41.472 
L 414.72 41.472 
" style="fill:none;stroke:#000000;stroke-linecap:square;stroke-linejoin:miter;stroke-width:0.8;"/>
   </g>
  </g>
  <g id="axes_2">
   <g id="patch_7">
    <path d="M 57.6 307.584 
L 414.72 307.584 
L 414.72 186.624 
L 57.6 186.624 
z
" style="fill:#ffffff;"/>
   </g>
   <g id="matplotlib.axis_3">
    <g id="xtick_8">
     <g id="line2d_28">
      <path clip-path="url(#pae250db58c)" d="M 57.6 307.584 
L 57.6 186.624 
" style="fill:none;stroke:#b0b0b0;stroke-linecap:square;stroke-width:0.8;"/>
     </g>
     <g id="line2d_29">
      <g>
       <use style="stroke:#000000;stroke-width:0.8;" x="57.6" xlink:href="#mda9fa903ec" y="307.584"/>
      </g>
     </g>
     <g id="text_8">
      <!-- 0 -->
      <g transform="translate(54.41875 322.182437)scale(0.1 -0.1)">
       <use xlink:href="#DejaVuSans-30"/>
      </g>
     </g>
    </g>
    <g id="xtick_9">
     <g id="line2d_30">
      <path clip-path="url(#pae250db58c)" d="M 113.4 307.584 
L 113.4 186.624 
" style="fill:none;stroke:#b0b0b0;stroke-linecap:square;stroke-width:0.8;"/>
     </g>
     <g id="line2d_31">
      <g>
       <use style="stroke:#000000;stroke-width:0.8;" x="113.4" xlink:href="#mda9fa903ec" y="307.584"/>
      </g>
     </g>
     <g id="text_9">
      <!-- 5 -->
      <g transform="translate(110.21875 322.182437)scale(0.1 -0.1)">
       <use xlink:href="#DejaVuSans-35"/>
      </g>
     </g>
    </g>
    <g id="xtick_10">
     <g id="line2d_32">
      <path clip-path="url(#pae250db58c)" d="M 169.2 307.584 
L 169.2 186.624 
" style="fill:none;stroke:#b0b0b0;stroke-linecap:square;stroke-width:0.8;"/>
     </g>
     <g id="line2d_33">
      <g>
       <use style="stroke:#000000;stroke-width:0.8;" x="169.2" xlink:href="#mda9fa903ec" y="307.584"/>
      </g>
     </g>
     <g id="text_10">
      <!-- 10 -->
      <g transform="translate(162.8375 322.182437)scale(0.1 -0.1)">
       <use xlink:href="#DejaVuSans-31"/>
       <use x="63.623047" xlink:href="#DejaVuSans-30"/>
      </g>
     </g>
    </g>
    <g id="xtick_11">
     <g id="line2d_34">
      <path clip-path="url(#pae250db58c)" d="M 225 307.584 
L 225 186.624 
" style="fill:none;stroke:#b0b0b0;stroke-linecap:square;stroke-width:0.8;"/>
     </g>
     <g id="line2d_35">
      <g>
       <use style="stroke:#000000;stroke-width:0.8;" x="225" xlink:href="#mda9fa903ec" y="307.584"/>
      </g>
     </g>
     <g id="text_11">
      <!-- 15 -->
      <g transform="translate(218.6375 322.182437)scale(0.1 -0.1)">
       <use xlink:href="#DejaVuSans-31"/>
       <use x="63.623047" xlink:href="#DejaVuSans-35"/>
      </g>
     </g>
    </g>
    <g id="xtick_12">
     <g id="line2d_36">
      <path clip-path="url(#pae250db58c)" d="M 280.8 307.584 
L 280.8 186.624 
" style="fill:none;stroke:#b0b0b0;stroke-linecap:square;stroke-width:0.8;"/>
     </g>
     <g id="line2d_37">
      <g>
       <use style="stroke:#000000;stroke-width:0.8;" x="280.8" xlink:href="#mda9fa903ec" y="307.584"/>
      </g>
     </g>
     <g id="text_12">
      <!-- 20 -->
      <g transform="translate(274.4375 322.182437)scale(0.1 -0.1)">
       <use xlink:href="#DejaVuSans-32"/>
       <use x="63.623047" xlink:href="#DejaVuSans-30"/>
      </g>
     </g>
    </g>
    <g id="xtick_13">
     <g id="line2d_38">
      <path clip-path="url(#pae250db58c)" d="M 336.6 307.584 
L 336.6 186.624 
" style="fill:none;stroke:#b0b0b0;stroke-linecap:square;stroke-width:0.8;"/>
     </g>
     <g id="line2d_39">
      <g>
       <use style="stroke:#000000;stroke-width:0.8;" x="336.6" xlink:href="#mda9fa903ec" y="307.584"/>
      </g>
     </g>
     <g id="text_13">
      <!-- 25 -->
      <g transform="translate(330.2375 322.182437)scale(0.1 -0.1)">
       <use xlink:href="#DejaVuSans-32"/>
       <use x="63.623047" xlink:href="#DejaVuSans-35"/>
      </g>
     </g>
    </g>
    <g id="xtick_14">
     <g id="line2d_40">
      <path clip-path="url(#pae250db58c)" d="M 392.4 307.584 
L 392.4 186.624 
" style="fill:none;stroke:#b0b0b0;stroke-linecap:square;stroke-width:0.8;"/>
     </g>
     <g id="line2d_41">
      <g>
       <use style="stroke:#000000;stroke-width:0.8;" x="392.4" xlink:href="#mda9fa903ec" y="307.584"/>
      </g>
     </g>
     <g id="text_14">
      <!-- 30 -->
      <g transform="translate(386.0375 322.182437)scale(0.1 -0.1)">
       <use xlink:href="#DejaVuSans-33"/>
       <use x="63.623047" xlink:href="#DejaVuSans-30"/>
      </g>
     </g>
    </g>
    <g id="text_15">
     <!-- Days in March -->
     <g transform="translate(200.706875 335.860562)scale(0.1 -0.1)">
      <defs>
       <path d="M 1259 4147 
L 1259 519 
L 2022 519 
Q 2988 519 3436 956 
Q 3884 1394 3884 2338 
Q 3884 3275 3436 3711 
Q 2988 4147 2022 4147 
L 1259 4147 
z
M 628 4666 
L 1925 4666 
Q 3281 4666 3915 4102 
Q 4550 3538 4550 2338 
Q 4550 1131 3912 565 
Q 3275 0 1925 0 
L 628 0 
L 628 4666 
z
" id="DejaVuSans-44" transform="scale(0.015625)"/>
       <path d="M 2194 1759 
Q 1497 1759 1228 1600 
Q 959 1441 959 1056 
Q 959 750 1161 570 
Q 1363 391 1709 391 
Q 2188 391 2477 730 
Q 2766 1069 2766 1631 
L 2766 1759 
L 2194 1759 
z
M 3341 1997 
L 3341 0 
L 2766 0 
L 2766 531 
Q 2569 213 2275 61 
Q 1981 -91 1556 -91 
Q 1019 -91 701 211 
Q 384 513 384 1019 
Q 384 1609 779 1909 
Q 1175 2209 1959 2209 
L 2766 2209 
L 2766 2266 
Q 2766 2663 2505 2880 
Q 2244 3097 1772 3097 
Q 1472 3097 1187 3025 
Q 903 2953 641 2809 
L 641 3341 
Q 956 3463 1253 3523 
Q 1550 3584 1831 3584 
Q 2591 3584 2966 3190 
Q 3341 2797 3341 1997 
z
" id="DejaVuSans-61" transform="scale(0.015625)"/>
       <path d="M 2059 -325 
Q 1816 -950 1584 -1140 
Q 1353 -1331 966 -1331 
L 506 -1331 
L 506 -850 
L 844 -850 
Q 1081 -850 1212 -737 
Q 1344 -625 1503 -206 
L 1606 56 
L 191 3500 
L 800 3500 
L 1894 763 
L 2988 3500 
L 3597 3500 
L 2059 -325 
z
" id="DejaVuSans-79" transform="scale(0.015625)"/>
       <path d="M 2834 3397 
L 2834 2853 
Q 2591 2978 2328 3040 
Q 2066 3103 1784 3103 
Q 1356 3103 1142 2972 
Q 928 2841 928 2578 
Q 928 2378 1081 2264 
Q 1234 2150 1697 2047 
L 1894 2003 
Q 2506 1872 2764 1633 
Q 3022 1394 3022 966 
Q 3022 478 2636 193 
Q 2250 -91 1575 -91 
Q 1294 -91 989 -36 
Q 684 19 347 128 
L 347 722 
Q 666 556 975 473 
Q 1284 391 1588 391 
Q 1994 391 2212 530 
Q 2431 669 2431 922 
Q 2431 1156 2273 1281 
Q 2116 1406 1581 1522 
L 1381 1569 
Q 847 1681 609 1914 
Q 372 2147 372 2553 
Q 372 3047 722 3315 
Q 1072 3584 1716 3584 
Q 2034 3584 2315 3537 
Q 2597 3491 2834 3397 
z
" id="DejaVuSans-73" transform="scale(0.015625)"/>
       <path id="DejaVuSans-20" transform="scale(0.015625)"/>
       <path d="M 603 3500 
L 1178 3500 
L 1178 0 
L 603 0 
L 603 3500 
z
M 603 4863 
L 1178 4863 
L 1178 4134 
L 603 4134 
L 603 4863 
z
" id="DejaVuSans-69" transform="scale(0.015625)"/>
       <path d="M 3513 2113 
L 3513 0 
L 2938 0 
L 2938 2094 
Q 2938 2591 2744 2837 
Q 2550 3084 2163 3084 
Q 1697 3084 1428 2787 
Q 1159 2491 1159 1978 
L 1159 0 
L 581 0 
L 581 3500 
L 1159 3500 
L 1159 2956 
Q 1366 3272 1645 3428 
Q 1925 3584 2291 3584 
Q 2894 3584 3203 3211 
Q 3513 2838 3513 2113 
z
" id="DejaVuSans-6e" transform="scale(0.015625)"/>
       <path d="M 628 4666 
L 1569 4666 
L 2759 1491 
L 3956 4666 
L 4897 4666 
L 4897 0 
L 4281 0 
L 4281 4097 
L 3078 897 
L 2444 897 
L 1241 4097 
L 1241 0 
L 628 0 
L 628 4666 
z
" id="DejaVuSans-4d" transform="scale(0.015625)"/>
       <path d="M 2631 2963 
Q 2534 3019 2420 3045 
Q 2306 3072 2169 3072 
Q 1681 3072 1420 2755 
Q 1159 2438 1159 1844 
L 1159 0 
L 581 0 
L 581 3500 
L 1159 3500 
L 1159 2956 
Q 1341 3275 1631 3429 
Q 1922 3584 2338 3584 
Q 2397 3584 2469 3576 
Q 2541 3569 2628 3553 
L 2631 2963 
z
" id="DejaVuSans-72" transform="scale(0.015625)"/>
       <path d="M 3122 3366 
L 3122 2828 
Q 2878 2963 2633 3030 
Q 2388 3097 2138 3097 
Q 1578 3097 1268 2742 
Q 959 2388 959 1747 
Q 959 1106 1268 751 
Q 1578 397 2138 397 
Q 2388 397 2633 464 
Q 2878 531 3122 666 
L 3122 134 
Q 2881 22 2623 -34 
Q 2366 -91 2075 -91 
Q 1284 -91 818 406 
Q 353 903 353 1747 
Q 353 2603 823 3093 
Q 1294 3584 2113 3584 
Q 2378 3584 2631 3529 
Q 2884 3475 3122 3366 
z
" id="DejaVuSans-63" transform="scale(0.015625)"/>
       <path d="M 3513 2113 
L 3513 0 
L 2938 0 
L 2938 2094 
Q 2938 2591 2744 2837 
Q 2550 3084 2163 3084 
Q 1697 3084 1428 2787 
Q 1159 2491 1159 1978 
L 1159 0 
L 581 0 
L 581 4863 
L 1159 4863 
L 1159 2956 
Q 1366 3272 1645 3428 
Q 1925 3584 2291 3584 
Q 2894 3584 3203 3211 
Q 3513 2838 3513 2113 
z
" id="DejaVuSans-68" transform="scale(0.015625)"/>
      </defs>
      <use xlink:href="#DejaVuSans-44"/>
      <use x="77.001953" xlink:href="#DejaVuSans-61"/>
      <use x="138.28125" xlink:href="#DejaVuSans-79"/>
      <use x="197.460938" xlink:href="#DejaVuSans-73"/>
      <use x="249.560547" xlink:href="#DejaVuSans-20"/>
      <use x="281.347656" xlink:href="#DejaVuSans-69"/>
      <use x="309.130859" xlink:href="#DejaVuSans-6e"/>
      <use x="372.509766" xlink:href="#DejaVuSans-20"/>
      <use x="404.296875" xlink:href="#DejaVuSans-4d"/>
      <use x="490.576172" xlink:href="#DejaVuSans-61"/>
      <use x="551.855469" xlink:href="#DejaVuSans-72"/>
      <use x="590.71875" xlink:href="#DejaVuSans-63"/>
      <use x="645.699219" xlink:href="#DejaVuSans-68"/>
     </g>
    </g>
   </g>
   <g id="matplotlib.axis_4">
    <g id="ytick_7">
     <g id="line2d_42">
      <path clip-path="url(#pae250db58c)" d="M 57.6 307.584 
L 414.72 307.584 
" style="fill:none;stroke:#b0b0b0;stroke-linecap:square;stroke-width:0.8;"/>
     </g>
     <g id="line2d_43">
      <g>
       <use style="stroke:#000000;stroke-width:0.8;" x="57.6" xlink:href="#maf62aa912b" y="307.584"/>
      </g>
     </g>
     <g id="text_16">
      <!-- 0 -->
      <g transform="translate(44.2375 311.383219)scale(0.1 -0.1)">
       <use xlink:href="#DejaVuSans-30"/>
      </g>
     </g>
    </g>
    <g id="ytick_8">
     <g id="line2d_44">
      <path clip-path="url(#pae250db58c)" d="M 57.6 285.591273 
L 414.72 285.591273 
" style="fill:none;stroke:#b0b0b0;stroke-linecap:square;stroke-width:0.8;"/>
     </g>
     <g id="line2d_45">
      <g>
       <use style="stroke:#000000;stroke-width:0.8;" x="57.6" xlink:href="#maf62aa912b" y="285.591273"/>
      </g>
     </g>
     <g id="text_17">
      <!-- 10 -->
      <g transform="translate(37.875 289.390491)scale(0.1 -0.1)">
       <use xlink:href="#DejaVuSans-31"/>
       <use x="63.623047" xlink:href="#DejaVuSans-30"/>
      </g>
     </g>
    </g>
    <g id="ytick_9">
     <g id="line2d_46">
      <path clip-path="url(#pae250db58c)" d="M 57.6 263.598545 
L 414.72 263.598545 
" style="fill:none;stroke:#b0b0b0;stroke-linecap:square;stroke-width:0.8;"/>
     </g>
     <g id="line2d_47">
      <g>
       <use style="stroke:#000000;stroke-width:0.8;" x="57.6" xlink:href="#maf62aa912b" y="263.598545"/>
      </g>
     </g>
     <g id="text_18">
      <!-- 20 -->
      <g transform="translate(37.875 267.397764)scale(0.1 -0.1)">
       <use xlink:href="#DejaVuSans-32"/>
       <use x="63.623047" xlink:href="#DejaVuSans-30"/>
      </g>
     </g>
    </g>
    <g id="ytick_10">
     <g id="line2d_48">
      <path clip-path="url(#pae250db58c)" d="M 57.6 241.605818 
L 414.72 241.605818 
" style="fill:none;stroke:#b0b0b0;stroke-linecap:square;stroke-width:0.8;"/>
     </g>
     <g id="line2d_49">
      <g>
       <use style="stroke:#000000;stroke-width:0.8;" x="57.6" xlink:href="#maf62aa912b" y="241.605818"/>
      </g>
     </g>
     <g id="text_19">
      <!-- 30 -->
      <g transform="translate(37.875 245.405037)scale(0.1 -0.1)">
       <use xlink:href="#DejaVuSans-33"/>
       <use x="63.623047" xlink:href="#DejaVuSans-30"/>
      </g>
     </g>
    </g>
    <g id="ytick_11">
     <g id="line2d_50">
      <path clip-path="url(#pae250db58c)" d="M 57.6 219.613091 
L 414.72 219.613091 
" style="fill:none;stroke:#b0b0b0;stroke-linecap:square;stroke-width:0.8;"/>
     </g>
     <g id="line2d_51">
      <g>
       <use style="stroke:#000000;stroke-width:0.8;" x="57.6" xlink:href="#maf62aa912b" y="219.613091"/>
      </g>
     </g>
     <g id="text_20">
      <!-- 40 -->
      <g transform="translate(37.875 223.41231)scale(0.1 -0.1)">
       <use xlink:href="#DejaVuSans-34"/>
       <use x="63.623047" xlink:href="#DejaVuSans-30"/>
      </g>
     </g>
    </g>
    <g id="ytick_12">
     <g id="line2d_52">
      <path clip-path="url(#pae250db58c)" d="M 57.6 197.620364 
L 414.72 197.620364 
" style="fill:none;stroke:#b0b0b0;stroke-linecap:square;stroke-width:0.8;"/>
     </g>
     <g id="line2d_53">
      <g>
       <use style="stroke:#000000;stroke-width:0.8;" x="57.6" xlink:href="#maf62aa912b" y="197.620364"/>
      </g>
     </g>
     <g id="text_21">
      <!-- 50 -->
      <g transform="translate(37.875 201.419582)scale(0.1 -0.1)">
       <use xlink:href="#DejaVuSans-35"/>
       <use x="63.623047" xlink:href="#DejaVuSans-30"/>
      </g>
     </g>
    </g>
    <g id="text_22">
     <!-- 2000 -->
     <g transform="translate(31.795313 259.829)rotate(-90)scale(0.1 -0.1)">
      <use xlink:href="#DejaVuSans-32"/>
      <use x="63.623047" xlink:href="#DejaVuSans-30"/>
      <use x="127.246094" xlink:href="#DejaVuSans-30"/>
      <use x="190.869141" xlink:href="#DejaVuSans-30"/>
     </g>
    </g>
   </g>
   <g id="line2d_54">
    <path clip-path="url(#pae250db58c)" d="M 68.76 248.203636 
L 79.92 235.008 
L 91.08 246.004364 
L 102.24 250.402909 
L 113.4 248.203636 
L 124.56 239.406545 
L 135.72 241.605818 
L 146.88 239.406545 
L 158.04 195.421091 
L 169.2 213.015273 
L 180.36 235.008 
L 191.52 230.609455 
L 202.68 252.602182 
L 213.84 252.602182 
L 225 237.207273 
L 236.16 226.210909 
L 247.32 241.605818 
L 258.48 267.997091 
L 269.64 265.797818 
L 280.8 243.805091 
L 291.96 228.410182 
L 303.12 226.210909 
L 314.28 226.210909 
L 325.44 235.008 
L 336.6 235.008 
L 347.76 213.015273 
L 358.92 239.406545 
L 370.08 232.808727 
L 381.24 219.613091 
L 392.4 228.410182 
L 403.56 250.402909 
" style="fill:none;stroke:#008000;stroke-dasharray:9.6,2.4,1.5,2.4;stroke-dashoffset:0;stroke-width:1.5;"/>
    <defs>
     <path d="M -3 3 
L 3 3 
L 3 -3 
L -3 -3 
z
" id="m5c25fa563e" style="stroke:#008000;stroke-linejoin:miter;"/>
    </defs>
    <g clip-path="url(#pae250db58c)">
     <use style="fill:#008000;stroke:#008000;stroke-linejoin:miter;" x="68.76" xlink:href="#m5c25fa563e" y="248.203636"/>
     <use style="fill:#008000;stroke:#008000;stroke-linejoin:miter;" x="79.92" xlink:href="#m5c25fa563e" y="235.008"/>
     <use style="fill:#008000;stroke:#008000;stroke-linejoin:miter;" x="91.08" xlink:href="#m5c25fa563e" y="246.004364"/>
     <use style="fill:#008000;stroke:#008000;stroke-linejoin:miter;" x="102.24" xlink:href="#m5c25fa563e" y="250.402909"/>
     <use style="fill:#008000;stroke:#008000;stroke-linejoin:miter;" x="113.4" xlink:href="#m5c25fa563e" y="248.203636"/>
     <use style="fill:#008000;stroke:#008000;stroke-linejoin:miter;" x="124.56" xlink:href="#m5c25fa563e" y="239.406545"/>
     <use style="fill:#008000;stroke:#008000;stroke-linejoin:miter;" x="135.72" xlink:href="#m5c25fa563e" y="241.605818"/>
     <use style="fill:#008000;stroke:#008000;stroke-linejoin:miter;" x="146.88" xlink:href="#m5c25fa563e" y="239.406545"/>
     <use style="fill:#008000;stroke:#008000;stroke-linejoin:miter;" x="158.04" xlink:href="#m5c25fa563e" y="195.421091"/>
     <use style="fill:#008000;stroke:#008000;stroke-linejoin:miter;" x="169.2" xlink:href="#m5c25fa563e" y="213.015273"/>
     <use style="fill:#008000;stroke:#008000;stroke-linejoin:miter;" x="180.36" xlink:href="#m5c25fa563e" y="235.008"/>
     <use style="fill:#008000;stroke:#008000;stroke-linejoin:miter;" x="191.52" xlink:href="#m5c25fa563e" y="230.609455"/>
     <use style="fill:#008000;stroke:#008000;stroke-linejoin:miter;" x="202.68" xlink:href="#m5c25fa563e" y="252.602182"/>
     <use style="fill:#008000;stroke:#008000;stroke-linejoin:miter;" x="213.84" xlink:href="#m5c25fa563e" y="252.602182"/>
     <use style="fill:#008000;stroke:#008000;stroke-linejoin:miter;" x="225" xlink:href="#m5c25fa563e" y="237.207273"/>
     <use style="fill:#008000;stroke:#008000;stroke-linejoin:miter;" x="236.16" xlink:href="#m5c25fa563e" y="226.210909"/>
     <use style="fill:#008000;stroke:#008000;stroke-linejoin:miter;" x="247.32" xlink:href="#m5c25fa563e" y="241.605818"/>
     <use style="fill:#008000;stroke:#008000;stroke-linejoin:miter;" x="258.48" xlink:href="#m5c25fa563e" y="267.997091"/>
     <use style="fill:#008000;stroke:#008000;stroke-linejoin:miter;" x="269.64" xlink:href="#m5c25fa563e" y="265.797818"/>
     <use style="fill:#008000;stroke:#008000;stroke-linejoin:miter;" x="280.8" xlink:href="#m5c25fa563e" y="243.805091"/>
     <use style="fill:#008000;stroke:#008000;stroke-linejoin:miter;" x="291.96" xlink:href="#m5c25fa563e" y="228.410182"/>
     <use style="fill:#008000;stroke:#008000;stroke-linejoin:miter;" x="303.12" xlink:href="#m5c25fa563e" y="226.210909"/>
     <use style="fill:#008000;stroke:#008000;stroke-linejoin:miter;" x="314.28" xlink:href="#m5c25fa563e" y="226.210909"/>
     <use style="fill:#008000;stroke:#008000;stroke-linejoin:miter;" x="325.44" xlink:href="#m5c25fa563e" y="235.008"/>
     <use style="fill:#008000;stroke:#008000;stroke-linejoin:miter;" x="336.6" xlink:href="#m5c25fa563e" y="235.008"/>
     <use style="fill:#008000;stroke:#008000;stroke-linejoin:miter;" x="347.76" xlink:href="#m5c25fa563e" y="213.015273"/>
     <use style="fill:#008000;stroke:#008000;stroke-linejoin:miter;" x="358.92" xlink:href="#m5c25fa563e" y="239.406545"/>
     <use style="fill:#008000;stroke:#008000;stroke-linejoin:miter;" x="370.08" xlink:href="#m5c25fa563e" y="232.808727"/>
     <use style="fill:#008000;stroke:#008000;stroke-linejoin:miter;" x="381.24" xlink:href="#m5c25fa563e" y="219.613091"/>
     <use style="fill:#008000;stroke:#008000;stroke-linejoin:miter;" x="392.4" xlink:href="#m5c25fa563e" y="228.410182"/>
     <use style="fill:#008000;stroke:#008000;stroke-linejoin:miter;" x="403.56" xlink:href="#m5c25fa563e" y="250.402909"/>
    </g>
   </g>
   <g id="patch_8">
    <path d="M 57.6 307.584 
L 57.6 186.624 
" style="fill:none;stroke:#000000;stroke-linecap:square;stroke-linejoin:miter;stroke-width:0.8;"/>
   </g>
   <g id="patch_9">
    <path d="M 414.72 307.584 
L 414.72 186.624 
" style="fill:none;stroke:#000000;stroke-linecap:square;stroke-linejoin:miter;stroke-width:0.8;"/>
   </g>
   <g id="patch_10">
    <path d="M 57.6 307.584 
L 414.72 307.584 
" style="fill:none;stroke:#000000;stroke-linecap:square;stroke-linejoin:miter;stroke-width:0.8;"/>
   </g>
   <g id="patch_11">
    <path d="M 57.6 186.624 
L 414.72 186.624 
" style="fill:none;stroke:#000000;stroke-linecap:square;stroke-linejoin:miter;stroke-width:0.8;"/>
   </g>
  </g>
 </g>
 <defs>
  <clipPath id="p4840b26246">
   <rect height="120.96" width="357.12" x="57.6" y="41.472"/>
  </clipPath>
  <clipPath id="pae250db58c">
   <rect height="120.96" width="357.12" x="57.6" y="186.624"/>
  </clipPath>
 </defs>
</svg>
