<?xml version="1.0" encoding="UTF-8" standalone="no"?>
<!DOCTYPE svg PUBLIC "-//W3C//DTD SVG 1.1//EN"
 "http://www.w3.org/Graphics/SVG/1.1/DTD/svg11.dtd">
<!-- Generated by graphviz version 2.38.0 (20140413.2041)
 -->
<!-- Title: %3 Pages: 1 -->
<svg width="215pt" height="188pt"
 viewBox="0.00 0.00 215.00 188.00" xmlns="http://www.w3.org/2000/svg" xmlns:xlink="http://www.w3.org/1999/xlink">
<g id="graph0" class="graph" transform="scale(1 1) rotate(0) translate(106.5 94)">
<title>%3</title>
<polygon fill="white" stroke="none" points="-106.5,94 -106.5,-94 108.5,-94 108.5,94 -106.5,94"/>
<!-- A -->
<g id="node1" class="node"><title>A</title>
<polygon fill="none" stroke="black" points="-41.5,-90 -44.5,-94 -65.5,-94 -68.5,-90 -102.5,-90 -102.5,-54 -41.5,-54 -41.5,-90"/>
<text text-anchor="middle" x="-72" y="-68.3" font-family="Times New Roman,serif" font-size="14.00">Content</text>
</g>
<!-- B -->
<g id="node2" class="node"><title>B</title>
<polygon fill="none" stroke="black" points="27,-18 24,-22 3,-22 0,-18 -27,-18 -27,18 27,18 27,-18"/>
<text text-anchor="middle" x="0" y="3.7" font-family="Times New Roman,serif" font-size="14.00">drive</text>
</g>
<!-- A&#45;&gt;B -->
<g id="edge1" class="edge"><title>A&#45;&gt;B</title>
<path fill="none" stroke="black" d="M-53.8314,-53.8314C-45.2848,-45.2848 -34.9443,-34.9443 -25.6198,-25.6198"/>
<polygon fill="black" stroke="black" points="-23.0095,-27.9592 -18.4133,-18.4133 -27.9592,-23.0095 -23.0095,-27.9592"/>
</g>
<!-- C -->
<g id="node3" class="node"><title>C</title>
<polygon fill="none" stroke="black" points="104.5,54 101.5,50 80.5,50 77.5,54 39.5,54 39.5,90 104.5,90 104.5,54"/>
<text text-anchor="middle" x="72" y="75.7" font-family="Times New Roman,serif" font-size="14.00">MyDrive</text>
</g>
<!-- B&#45;&gt;C -->
<g id="edge2" class="edge"><title>B&#45;&gt;C</title>
<path fill="none" stroke="black" d="M18.1686,18.1686C26.7152,26.7152 37.0557,37.0557 46.3802,46.3802"/>
<polygon fill="black" stroke="black" points="48.9905,44.0408 53.5867,53.5867 44.0408,48.9905 48.9905,44.0408"/>
</g>
</g>
</svg>
